<?xml version="1.0" encoding="utf-8"?>
<!-- Designed by Vexels.com - 2021 All Rights Reserved - https://vexels.com/terms-and-conditions/  -->
<svg version="1.1" id="Capa_1" xmlns="http://www.w3.org/2000/svg" xmlns:xlink="http://www.w3.org/1999/xlink" x="0px" y="0px"
	 viewBox="0 0 1200 1200" enable-background="new 0 0 1200 1200" xml:space="preserve">
<g>
	<path fill="#0F5DB0" d="M600.137,982.218c-46.586,2.046-91.534,21.933-115.873,60.335c-26.834,42.338-29.128,74.428-29.237,82.733
		c64.052-0.945,204.247-2.603,290.209-0.564c-0.21-9.13-2.976-40.751-29.227-82.169
		C691.67,1004.151,646.723,984.264,600.137,982.218z"/>
	<path fill="#0F5DB0" d="M629.351,709.368h-54.255c0,0-12.521,72.341-31.302,136.335h112.685
		C656.479,845.702,633.525,735.8,629.351,709.368z"/>
	<circle fill="#D93B40" cx="1072.234" cy="855.265" r="28.07"/>
	<g>
		<path fill="#D93B40" d="M654.206,318.037c3.255,0,5.026-1.39,6.029-2.874l-12.276,0.18
			C649.103,316.74,650.99,318.037,654.206,318.037z"/>
		<path fill="#D93B40" d="M1096.942,990.003c2.174-6.707,3.362-13.857,3.362-21.288c0-38.111-30.894-69.005-69.005-69.005
			c-5.301,0-10.454,0.618-15.412,1.749c-2.057-20.683-19.504-36.837-40.728-36.837c-14.709,0-27.568,7.784-34.785,19.431
			C724.067,694.947,685.318,376.974,677.46,318.864l-11.802-0.888c-1.985,3.3-5.633,6.104-11.452,6.104
			c-5.829,0-9.462-2.678-11.555-5.665l-14.744,1.744c12.452,160.575,36.628,314.782,36.628,314.782s9.738,0,13.912,0
			c4.173,0,5.564,3.478,3.478,10.434c-2.086,6.956-8.347,13.216-8.347,13.216l57.037,185.721c0,0,32.693-0.696,32.693,3.478
			c0,4.174-6.956,12.521-6.956,12.521s-2.087,9.043,4.173,9.738c6.26,0.695,12.52,9.042,9.043,11.825
			c-3.478,2.782-12.52,6.26-12.52,6.26l-1.391,13.912l147.128,237.615c14.975-0.102,29.86-2.224,45.558-7.804
			c14.05,11.341,31.915,18.145,51.377,18.145c34.489,0,63.975-21.336,76.035-51.52c0.389,0.008,0.767,0.058,1.157,0.058
			c31.006,0,56.14-25.135,56.14-56.14C1133.053,1018.46,1118.042,998.076,1096.942,990.003z"/>
	</g>
	<circle fill="#0F5DB0" cx="127.766" cy="855.265" r="28.07"/>
	<g>
		<path fill="#0F5DB0" d="M527.755,208.153c-0.007,0.046-0.016,0.146-0.023,0.2l1.505-0.178L527.755,208.153z"/>
		<path fill="#0F5DB0" d="M563.027,253.361c0.85-1.893,1.424-3.166,11.923-7.482c0.74-13.549,1.378-24.919,1.815-31.866
			l-15.979-1.203c-1.986,3.3-5.633,6.104-11.452,6.104c-5.829,0-9.462-2.678-11.555-5.665l-10.573,1.25
			c-1.979,26.939-7.618,127.059-10.859,147.21c-17.456,108.522-73.15,361.856-256.722,522.343
			c-7.217-11.647-20.076-19.431-34.785-19.431c-21.224,0-38.671,16.154-40.728,36.837c-4.958-1.132-10.111-1.749-15.412-1.749
			c-38.111,0-69.005,30.895-69.005,69.005c0,7.431,1.188,14.581,3.362,21.288c-21.1,8.073-36.111,28.457-36.111,52.395
			c0,31.005,25.135,56.14,56.14,56.14c0.391,0,0.769-0.051,1.157-0.058c12.06,30.184,41.546,51.52,76.035,51.52
			c19.461,0,37.327-6.804,51.377-18.145c15.698,5.581,30.583,7.702,45.558,7.804l147.128-237.615l-1.391-13.912
			c0,0-9.042-3.478-12.52-6.26c-3.478-2.782,2.782-11.129,9.043-11.825c6.26-0.696,4.173-9.738,4.173-9.738
			s-6.956-8.347-6.956-12.521c0-4.173,32.693-3.478,32.693-3.478l57.037-185.721c0,0-6.26-6.26-8.347-13.216
			c-2.086-6.956-0.696-10.434,3.478-10.434c4.174,0,13.912,0,13.912,0s19.445-124.017,32.439-265.428
			c0.901-9.805,3.195-52.25,5.301-91.346l-9.996,1.414c-0.283,0.04-0.565,0.06-0.847,0.06c-1.771,0-3.471-0.78-4.628-2.159
			c-1.34-1.598-1.763-3.773-1.116-5.756C557.427,269.236,561.547,256.655,563.027,253.361z"/>
		<path fill="#0F5DB0" d="M549.334,212.872c4.316,0,6.078-2.43,6.803-4.303l-14.178-0.208
			C542.743,210.181,544.668,212.872,549.334,212.872z"/>
	</g>
	<path fill="#D93B40" d="M737.185,252.589c0,0-24.749-9.502-29.952-12.007c-1.763-0.849-3.078-1.129-4.046-1.129
		c-1.89,0-2.458,1.069-2.458,1.069l-30.793-11.409c0,0-0.009-7.848-0.062-18.071c-0.037-7.118-4.854-7.746-6.553-7.746
		c-0.364,0-0.584,0.029-0.584,0.029s-1.867-28.442-3.333-39.941c-0.738-5.79-3.133-8.218-5.55-8.218
		c-2.383-0.001-4.788,2.358-5.653,6.181c-1.742,7.7-4.064,42.542-4.064,42.542s-0.022-0.001-0.063-0.001
		c-0.65,0-6.16,0.137-6.666,4.788c-0.537,4.943-1.264,21.549-1.264,21.549s-66.183,22.447-67.605,25.612
		c-1.422,3.165-6.177,17.76-6.177,17.76l73.78-10.433c0,0,0.547,2.905,2.147,7.024c1.43,3.68,4.337,4.04,5.418,4.04
		c0.263,0,0.417-0.021,0.417-0.021l2.317,18.747c0,0-22.38,7.182-29.872,9.472c-7.492,2.29-5.341,7.094-3.745,13.432l33.487-3.96
		c0,0,0.877,6.14,7.894,6.14c7.018,0,7.31-6.433,7.31-6.433l33.028,2.486c0.927-8.134-0.556-10.753-3.218-11.645
		c-2.662-0.893-31.755-10.091-31.755-10.091l1.186-18.453c2.688-0.139,5.307-1.622,5.983-3.877c0.676-2.255,1.959-8.108,1.959-8.108
		l74.428,8.995L737.185,252.589z"/>
	<path fill="#0F5DB0" d="M632.313,147.424c0,0-24.749-9.502-29.952-12.007c-1.763-0.849-3.077-1.129-4.046-1.129
		c-1.89,0-2.458,1.069-2.458,1.069l-30.793-11.409c0,0-0.009-7.848-0.062-18.071c-0.037-7.118-4.854-7.746-6.553-7.746
		c-0.364,0-0.584,0.029-0.584,0.029s-1.867-28.442-3.333-39.941c-0.738-5.79-3.133-8.218-5.55-8.218
		c-2.383-0.001-4.788,2.358-5.653,6.181c-1.742,7.7-4.064,42.542-4.064,42.542s-0.022-0.001-0.063-0.001
		c-0.65,0-6.16,0.138-6.666,4.788c-0.537,4.943-1.264,21.549-1.264,21.549s-66.183,22.447-67.605,25.612
		c-1.422,3.165-6.177,17.76-6.177,17.76l73.78-10.433c0,0,0.547,2.905,2.147,7.024c1.43,3.68,4.337,4.04,5.418,4.04
		c0.263,0,0.418-0.021,0.418-0.021l2.317,18.747c0,0-22.38,7.182-29.872,9.472c-7.492,2.29-5.341,7.094-3.745,13.432l33.487-3.96
		c0,0,0.877,6.14,7.895,6.14c7.017,0,7.31-6.433,7.31-6.433l33.028,2.486c0.927-8.134-0.556-10.753-3.218-11.645
		c-2.662-0.893-31.755-10.091-31.755-10.091l1.186-18.453c2.688-0.139,5.307-1.622,5.983-3.877c0.676-2.255,1.959-8.108,1.959-8.108
		l74.428,8.995L632.313,147.424z"/>
</g>
</svg>
